<svg width="121" height="121" viewBox="0 0 121 121" fill="none" xmlns="http://www.w3.org/2000/svg">
<path d="M103.355 105.875H17.6465L30.2507 93.271H90.7507L103.355 105.875Z" fill="#37649A"/>
<path d="M47.8965 82.8726H73.1048V95.4767H47.8965V82.8726Z" fill="#37649A"/>
<path d="M105.875 83.1875C105.875 85.9705 103.616 88.2292 100.833 88.2292H20.1667C17.3837 88.2292 15.125 85.9705 15.125 83.1875V20.1667C15.125 17.3837 17.3837 15.125 20.1667 15.125H100.833C103.616 15.125 105.875 17.3837 105.875 20.1667V83.1875Z" fill="#1F1B57"/>
<path d="M22.6875 22.6875H98.3125V80.3516H22.6875V22.6875Z" fill="#2B38AC"/>
<path d="M50.1133 31.3677L55.4615 36.7144L35.8568 56.3247L30.5085 50.9779L50.1133 31.3677Z" fill="#1D83C0"/>
<path d="M30.502 50.9756L35.8479 45.6265L55.4612 65.2282L50.1153 70.5773L30.502 50.9756Z" fill="#1D83C0"/>
<path d="M90.75 50.9756L85.4026 56.3232L65.7948 36.716L71.1422 31.3684L90.75 50.9756Z" fill="#1D83C0"/>
<path d="M71.1445 70.583L65.7986 65.2339L85.4119 45.6323L90.7578 50.9813L71.1445 70.583Z" fill="#1D83C0"/>
</svg>
