<svg width="183" height="168" viewBox="0 0 183 168" fill="none" xmlns="http://www.w3.org/2000/svg">
<g clip-path="url(#clip0)">
<path opacity="0.34" d="M26.7159 164.558C41.4707 164.558 53.4318 162.221 53.4318 159.337C53.4318 156.454 41.4707 154.117 26.7159 154.117C11.9611 154.117 0 156.454 0 159.337C0 162.221 11.9611 164.558 26.7159 164.558Z" fill="#575FA8"/>
<path d="M29.64 149.918L29.0918 158.826H45.0262C45.0262 158.826 38.5209 154.481 35.6337 153.094L35.3048 149.954H29.64V149.918Z" fill="#F08789"/>
<path d="M34.5744 79.2354L35.6343 152.327H29.3482C29.3482 152.327 22.4042 123.704 25.8031 115.343L19.7363 79.2354H34.5744Z" fill="#32388D"/>
<path opacity="0.2" d="M34.573 79.2354H19.7715L25.8383 115.343C24.6688 118.227 24.7053 123.558 25.2901 129.29L35.4867 141.739L34.573 79.2354Z" fill="#020203"/>
<path d="M12.8295 151.086L10.3809 159.994H27.7773C27.7773 159.994 20.4313 155.649 17.5076 154.262L18.0558 151.122H12.8295V151.086Z" fill="#F08789"/>
<path d="M35.0118 78.3232L28.8354 114.979L18.4195 152.327H12.1699C12.1699 152.327 14.18 116.475 20.6123 112.751L15.5323 78.3596H35.0118V78.3232Z" fill="#32388D"/>
<path opacity="0.2" d="M34.6108 80.8424L35.0128 78.3232H15.5332L15.9718 81.3168L34.6473 83.6899L34.6108 80.8424Z" fill="#020203"/>
<path d="M45.0625 53.022C45.0625 53.022 48.9368 46.779 54.9669 45.355L52.5913 48.2029C52.5913 48.2029 53.7245 51.1601 52.299 52.6568C50.8736 54.1536 48.5713 54.2632 48.5713 54.2632L46.9632 56.0524L45.0625 53.022Z" fill="#F5ABAE"/>
<path d="M29.75 47.9106L35.0493 58.7176L45.4285 51.7078L48.0236 55.6873C48.0236 55.6873 38.9964 72.6278 35.0128 71.3862C31.0292 70.145 27.5938 61.2004 27.5938 61.2004L29.75 47.9106Z" fill="white"/>
<path opacity="0.2" d="M35.0128 58.7177L29.7135 47.9106L27.5938 61.2004C27.5938 61.2004 31.0292 70.145 35.0128 71.3862C35.1224 71.423 35.1955 71.423 35.3052 71.423L40.0928 55.2493L35.0128 58.7177Z" fill="#020203"/>
<path d="M33.7685 22.3906C33.7685 22.3906 34.3898 27.9035 35.0111 29.2544H33.2934C33.2934 29.2544 33.4395 34.5483 32.3432 35.2054C31.5757 35.68 29.3463 35.2054 28.8346 35.8261C28.323 36.4467 27.5555 40.8644 27.5555 40.8644L20.6481 40.2802L21.3425 34.1101C21.3425 34.1101 17.4685 29.4735 18.638 23.778C19.8075 18.0826 32.7452 17.0968 33.7685 22.3906Z" fill="#F5ABAE"/>
<path opacity="0.2" d="M25.1447 31.5909L19.6992 31.2988C20.5033 33.0148 21.3804 34.0735 21.3804 34.0735L20.686 40.2436L27.5934 40.8278C27.5934 40.8278 28.3609 36.4101 28.8726 35.7895C29.0553 35.5704 29.4938 35.4609 30.0055 35.4609C27.3376 34.7307 24.9255 31.7369 25.1447 31.5909Z" fill="#020203"/>
<path d="M33.9894 24.216C33.9894 24.216 32.5275 25.0922 29.6038 23.1572C29.6038 23.1572 27.6302 26.6986 25.9125 26.224C25.9125 26.224 25.8394 28.7431 25.474 28.9257C25.1085 29.1082 24.3776 26.7716 23.6466 26.6256C22.9157 26.4796 22.1482 27.2097 22.9522 29.4003C23.7197 31.5909 25.145 31.5909 25.145 31.5909L21.3441 34.11C21.3441 34.11 18.3473 33.1608 17.7625 30.6781C17.7625 30.6781 13.9617 26.9907 16.2641 24.362C16.2641 24.362 13.7423 22.2444 19.6264 19.6523C19.6264 19.6523 21.0152 14.541 23.7563 16.8776C23.7563 16.8776 28.8363 13.0806 30.0789 16.476C30.0789 16.476 36.6208 15.9284 37.0228 19.4697C37.4248 23.0112 35.8533 23.8509 35.8533 23.8509C35.8533 23.8509 36.2188 26.7716 34.3914 26.9177L33.9894 24.216Z" fill="#212226"/>
<path d="M15.8612 47.4361C15.8612 47.4361 12.4258 46.5961 13.0105 42.9454C13.5953 39.258 18.4195 37.615 28.3237 39.9152C29.4933 40.1707 30.4069 42.1057 29.6394 43.785C29.6394 43.785 32.8191 51.5981 33.8058 57.9871C34.7926 64.3762 35.3043 71.0577 36.4007 74.1608C37.4605 77.2644 36.5834 80.7327 33.6231 80.7327C30.6993 80.7327 19.1505 80.7327 15.5688 80.7327C11.9872 80.7327 11.5487 75.7672 12.974 70.5829C14.3628 65.435 16.4459 51.1601 15.8612 47.4361Z" fill="#444496"/>
<path d="M23.902 45.4284C29.5302 46.6331 25.6197 57.8049 24.4867 60.9813C23.3537 64.194 22.1111 67.042 23.902 69.5243C25.6928 72.007 28.8358 74.7818 28.8358 74.7818L26.7161 79.2357C26.7161 79.2357 14.9845 77.7389 12.1704 74.2706C9.39278 70.8023 10.9643 63.0624 13.3764 57.7317C15.7885 52.4014 19.699 44.552 23.902 45.4284Z" fill="white"/>
<path d="M26.3879 80.0022C26.2417 79.9295 26.2051 79.7835 26.2417 79.637L29.0923 73.4308C29.1655 73.2848 29.3117 73.248 29.4578 73.2848C29.604 73.3576 29.6405 73.5036 29.604 73.6496L26.7533 79.8562C26.6803 80.0022 26.5341 80.0386 26.3879 80.0022Z" fill="#A77071"/>
<path d="M23.7197 101.141C23.7197 102.054 22.9888 102.821 22.0386 102.821C21.1249 102.821 20.3574 102.054 20.3574 101.141C20.3574 100.228 21.0884 99.4619 22.0386 99.4619C22.9888 99.4983 23.7197 100.228 23.7197 101.141Z" fill="#59BCAB"/>
<path d="M13.2648 100.703C10.9258 100.703 9.02539 98.8048 9.02539 96.468C9.02539 94.1313 10.9258 92.2329 13.2648 92.2329C15.6039 92.2329 17.5043 94.1313 17.5043 96.468C17.5043 98.8048 15.6039 100.703 13.2648 100.703ZM13.2648 94.4601C12.1319 94.4601 11.2547 95.3729 11.2547 96.468C11.2547 97.5632 12.1684 98.476 13.2648 98.476C14.3978 98.476 15.2749 97.5632 15.2749 96.468C15.2749 95.3729 14.3978 94.4601 13.2648 94.4601Z" fill="#FCC450"/>
<path d="M135.151 17.8638H133.762V19.2877C133.762 19.9448 133.25 20.456 132.592 20.456C131.935 20.456 131.423 19.9448 131.423 19.2877V17.8638H129.998C129.34 17.8638 128.828 17.3527 128.828 16.6955C128.828 16.0383 129.34 15.5272 129.998 15.5272H131.423V14.1034C131.423 13.4462 131.935 12.9351 132.592 12.9351C133.25 12.9351 133.762 13.4462 133.762 14.1034V15.5272H135.187C135.845 15.5272 136.357 16.0383 136.357 16.6955C136.321 17.3527 135.809 17.8638 135.151 17.8638Z" fill="#59BCAB"/>
<path d="M146.628 10.4885C146.628 11.4012 145.897 12.1679 144.947 12.1679C144.033 12.1679 143.266 11.4378 143.266 10.4885C143.266 9.57575 144.033 8.80908 144.947 8.80908C145.86 8.80908 146.628 9.53927 146.628 10.4885Z" fill="#345185"/>
<path d="M60.1188 48.0567C55.0753 35.4243 57.6699 20.492 67.9031 10.2694C72.8373 5.34065 78.8674 2.16432 85.2266 0.813477L88.9908 17.8633C81.06 19.5793 75.1396 26.6256 75.1396 35.0592C75.1396 37.3593 75.578 39.5499 76.3821 41.5944L60.1188 48.0567Z" fill="#345185"/>
<path d="M67.9056 59.8491C67.6497 59.5936 67.3574 59.3016 67.1016 59.0096L79.8565 47.071C83.0725 50.5029 87.6408 52.6205 92.7211 52.6205C102.443 52.6205 110.337 44.7342 110.337 35.0229C110.337 28.0861 106.353 22.0986 100.505 19.2509L108.254 3.58838C111.616 5.2313 114.759 7.45837 117.536 10.2331C131.242 23.9241 131.242 46.1582 117.536 59.8491C103.868 73.5401 81.6107 73.5401 67.9056 59.8491Z" fill="white"/>
<path d="M92.7576 17.4618C91.4419 17.4618 90.1994 17.6079 88.9934 17.8634L85.2656 0.813595C92.9406 -0.865834 101.09 0.0469001 108.29 3.62481L100.542 19.2873C98.2031 18.0825 95.5352 17.4618 92.7576 17.4618Z" fill="#59BCAB"/>
<path d="M67.0998 59.0097C64.0299 55.7238 61.6907 51.9999 60.1191 48.0567L76.3828 41.5947C77.1869 43.6392 78.3929 45.5012 79.8912 47.1075L67.0998 59.0097Z" fill="#C1E4EE"/>
<path d="M172.758 27.2462V144.733C172.758 146.705 171.15 148.311 169.176 148.311H93.9625C91.9889 148.311 90.3809 146.705 90.3809 144.733V27.2462C90.3809 25.2748 91.9889 23.6318 93.9625 23.6318H169.14C171.15 23.6318 172.758 25.2382 172.758 27.2462Z" fill="#2E7EFF"/>
<path d="M82.0832 151.67H181.053C181.966 151.67 182.734 150.94 182.734 149.991C182.734 149.078 182.003 148.312 181.053 148.312H82.0832C81.1695 148.312 80.4023 149.041 80.4023 149.991C80.4023 150.94 81.1695 151.67 82.0832 151.67Z" fill="#E2E2E1"/>
<path d="M172.758 27.2096V35.9719H90.3809V27.2096C90.3809 25.2381 91.9889 23.5952 93.9625 23.5952H169.14C171.15 23.6317 172.758 25.2381 172.758 27.2096Z" fill="#2E7EFF"/>
<path d="M131.57 145.208C129.706 145.208 128.207 143.711 128.207 141.849C128.207 139.987 129.706 138.49 131.57 138.49C133.434 138.49 134.932 139.987 134.932 141.849C134.968 143.711 133.434 145.208 131.57 145.208Z" fill="#E6F2EA"/>
<path d="M99.8827 31.0799C99.1152 31.0799 98.4941 30.4592 98.4941 29.6925C98.4941 28.9258 99.1152 28.3052 99.8827 28.3052C100.65 28.3052 101.272 28.9258 101.272 29.6925C101.235 30.4592 100.614 31.0799 99.8827 31.0799Z" fill="#E6F2EA"/>
<path d="M104.233 31.0799C103.465 31.0799 102.844 30.4592 102.844 29.6925C102.844 28.9258 103.465 28.3052 104.233 28.3052C105 28.3052 105.621 28.9258 105.621 29.6925C105.621 30.4592 105 31.0799 104.233 31.0799Z" fill="#E6F2EA"/>
<path d="M171.479 35.9722H91.6602V134.876H171.479V35.9722Z" fill="#D2EBF7"/>
<path d="M105.947 69.1222V57.4028H79.5234V69.1222H105.947Z" fill="#2E7EFF"/>
<path d="M122.072 98.945V87.2256H95.6484V98.945H122.072Z" fill="#2E7EFF"/>
<path d="M114.029 84.0519V72.3325H87.6055V84.0519H114.029Z" fill="#2E7EFF"/>
<path d="M166.911 40.1343H95.6445V53.4601H166.911V40.1343Z" fill="#EDF6F4"/>
<path d="M164.755 42.0327H155.289V51.4885H164.755V42.0327Z" fill="#D2E8F2"/>
<path d="M120.751 42.6167H100.248V44.4423H120.751V42.6167Z" fill="#ACD8C8"/>
<path d="M120.751 45.8662H100.248V47.6918H120.751V45.8662Z" fill="#ACD8C8"/>
<path d="M114.063 49.1152H100.248V50.9408H114.063V49.1152Z" fill="#ACD8C8"/>
<path opacity="0.5" d="M180.361 97.0518H122.068V124.397H180.361V97.0518Z" fill="#96CEB8"/>
<path d="M150.756 106.508H127.877V108.808H150.756V106.508Z" fill="#E6F2EA"/>
<path d="M145.31 110.597H127.877V112.897H145.31V110.597Z" fill="#E6F2EA"/>
<path d="M139.645 114.723H127.877V117.023H139.645V114.723Z" fill="#E6F2EA"/>
<path d="M148.127 114.723H141.109V117.023H148.127V114.723Z" fill="#E6F2EA"/>
<path d="M143.775 118.812H127.877V121.112H143.775V118.812Z" fill="#E6F2EA"/>
<path d="M116.695 103.332H95.6445V124.361H116.695V103.332Z" fill="#9FD2BA"/>
<path d="M110.824 118.563C113.393 115.997 113.393 111.836 110.824 109.27C108.254 106.704 104.09 106.704 101.52 109.27C98.9516 111.836 98.9516 115.997 101.52 118.563C104.09 121.13 108.254 121.13 110.824 118.563Z" fill="#7CC39E"/>
<path d="M111.177 113.92C111.177 115.563 110.373 117.023 109.13 117.936C108.764 118.191 108.362 118.447 107.924 118.593C107.741 118.666 107.522 118.739 107.339 118.775C107.229 118.812 107.083 118.812 106.973 118.849C106.718 118.885 106.462 118.921 106.206 118.921C105.694 118.921 105.182 118.849 104.708 118.703C102.661 118.082 101.199 116.183 101.199 113.92C101.199 113.153 101.382 112.386 101.711 111.729C102.113 110.926 102.698 110.232 103.428 109.758C103.611 109.648 103.794 109.539 103.976 109.429C104.378 109.21 104.817 109.064 105.292 108.991C105.585 108.918 105.914 108.918 106.206 108.918C108.326 108.918 110.153 110.232 110.847 112.094C111.03 112.678 111.177 113.263 111.177 113.92Z" fill="#EFF4F4"/>
<path d="M106.169 114.504C105.84 114.504 105.584 114.248 105.584 113.92V110.707C105.584 110.378 105.84 110.123 106.169 110.123C106.498 110.123 106.754 110.378 106.754 110.707V113.92C106.754 114.248 106.498 114.504 106.169 114.504Z" fill="#C1D6CF"/>
<path d="M106.169 114.504C105.987 114.504 105.804 114.394 105.694 114.248C105.511 113.992 105.621 113.627 105.877 113.445L107.521 112.386C107.777 112.204 108.143 112.313 108.325 112.568C108.508 112.824 108.399 113.189 108.143 113.372L106.498 114.43C106.389 114.467 106.279 114.504 106.169 114.504Z" fill="#C1D6CF"/>
<path d="M166.911 57.4028H125.32V98.9505H166.911V57.4028Z" fill="#98D5E9"/>
<path d="M146.114 80.0386C143.19 80.0386 140.814 77.6655 140.814 74.7447V71.5688C140.814 68.6481 143.19 66.2749 146.114 66.2749C149.038 66.2749 151.413 68.6481 151.413 71.5688V74.7447C151.413 77.6655 149.038 80.0386 146.114 80.0386Z" fill="#F8FCFA"/>
<path d="M146.116 77.3374C141.109 77.3374 136.833 80.2581 134.823 84.4933C133.653 86.976 135.444 89.8236 138.185 89.8236H154.083C156.824 89.8236 158.615 86.976 157.445 84.4933C155.435 80.2581 151.123 77.3374 146.116 77.3374Z" fill="#F8FCFA"/>
<path d="M166.903 129.164V125.768H95.6367V129.164H166.903Z" fill="#FFE1AB"/>
<path d="M172.246 56.0523V43.6753C173.123 43.6753 173.854 44.4057 173.854 45.2821V54.4823C173.854 55.3583 173.123 56.0523 172.246 56.0523Z" fill="#2E7EFF"/>
<path d="M172.246 69.8892V57.5127C173.123 57.5127 173.854 58.2427 173.854 59.1191V68.3193C173.854 69.1589 173.123 69.8892 172.246 69.8892Z" fill="#2E7EFF"/>
<path opacity="0.3" d="M137.966 35.9722L91.6602 82.2295V57.3668L113.077 35.9722H137.966Z" fill="#F6FBFD"/>
<path opacity="0.3" d="M155.289 35.9722L91.6602 99.5348V87.1219L142.863 35.9722H155.289Z" fill="#F6FBFD"/>
<path opacity="0.3" d="M108.18 107.165V117.826C108.18 118.264 107.888 118.665 107.486 118.775V148.274H93.9996C92.026 148.274 90.418 146.668 90.418 144.697V85.4419H105C106.389 85.4419 107.486 86.5739 107.486 87.9247V106.216C107.888 106.362 108.18 106.727 108.18 107.165Z" fill="#385F82"/>
<path d="M97.9084 80.5135V162.075C97.9084 163.463 96.7753 164.558 95.4231 164.558H52.5533C51.2011 164.558 50.0684 163.463 50.0684 162.075V80.5135C50.0684 79.1259 51.2011 78.0308 52.5533 78.0308H95.3867C96.7753 78.0308 97.9084 79.1259 97.9084 80.5135Z" fill="#2E7EFF"/>
<path d="M97.9084 80.5135V86.6106H50.0684V80.5135C50.0684 79.1259 51.2011 78.0308 52.5533 78.0308H95.4231C96.7753 78.0308 97.9084 79.1628 97.9084 80.5135Z" fill="#2E7EFF"/>
<path d="M73.972 162.441C72.6927 162.441 71.6328 161.382 71.6328 160.104C71.6328 158.826 72.6927 157.768 73.972 157.768C75.2509 157.768 76.3108 158.826 76.3108 160.104C76.3108 161.382 75.2877 162.441 73.972 162.441Z" fill="#E6F2EA"/>
<path d="M65.3095 83.1786C64.7978 83.1786 64.3594 82.7406 64.3594 82.2295C64.3594 81.7183 64.7978 81.2803 65.3095 81.2803C65.8213 81.2803 66.2597 81.7183 66.2597 82.2295C66.2597 82.777 65.8577 83.1786 65.3095 83.1786Z" fill="#E6F2EA"/>
<path d="M78.796 82.5947H69.3304C69.1474 82.5947 68.9648 82.4487 68.9648 82.2295C68.9648 82.0102 69.111 81.8643 69.3304 81.8643H78.796C78.9786 81.8643 79.1616 82.0102 79.1616 82.2295C79.1616 82.4487 78.9786 82.5947 78.796 82.5947Z" fill="#E6F2EA"/>
<path d="M96.9963 86.6104H50.9473V155.284H96.9963V86.6104Z" fill="#D2EBF7"/>
<path d="M63.008 123.12H54.6387V125.749H63.008V123.12Z" fill="#EDF6F4"/>
<path d="M84.3146 123.12H75.9453V125.749H84.3146V123.12Z" fill="#EDF6F4"/>
<path d="M73.6427 123.12H65.2734V125.749H73.6427V123.12Z" fill="#EDF6F4"/>
<path d="M93.3778 127.902H59.6816V137.139H93.3778V127.902Z" fill="#EDF6F4"/>
<path d="M91.879 129.217H85.3008V135.788H91.879V129.217Z" fill="#D5EAE4"/>
<path d="M72.181 129.619H57.9277V130.896H72.181V129.619Z" fill="#ACD8C8"/>
<path d="M72.181 131.882H57.9277V133.16H72.181V131.882Z" fill="#ACD8C8"/>
<path d="M67.503 134.146H57.9277V135.424H67.503V134.146Z" fill="#ACD8C8"/>
<path d="M79.3439 139.439H54.7109V150.976H79.3439V139.439Z" fill="#EDF6F4"/>
<path d="M70.4997 141.192H57.9277V142.47H70.4997V141.192Z" fill="#FFE1AB"/>
<path d="M67.503 143.419H57.9277V144.697H67.503V143.419Z" fill="#FFE1AB"/>
<path d="M64.3963 145.683H57.9277V146.96H64.3963V145.683Z" fill="#FFE1AB"/>
<path d="M69.0367 145.683H65.1992V146.96H69.0367V145.683Z" fill="#ACD8C8"/>
<path d="M66.6622 147.946H57.9277V149.224H66.6622V147.946Z" fill="#FFE1AB"/>
<path opacity="0.5" d="M84.35 90.8818H48.0957V120.418H84.35V90.8818Z" fill="#FFE1AB"/>
<path d="M69.5486 115.015C74.6756 115.015 78.8316 110.863 78.8316 105.742C78.8316 100.62 74.6756 96.4683 69.5486 96.4683C64.4217 96.4683 60.2656 100.62 60.2656 105.742C60.2656 110.863 64.4217 115.015 69.5486 115.015Z" fill="#FCC450"/>
<path d="M76.5655 105.741C76.5655 108.078 75.4323 110.122 73.7146 111.4C73.2033 111.765 72.6183 112.094 71.9968 112.313C71.7414 112.422 71.4487 112.496 71.1564 112.568C70.9738 112.605 70.7908 112.642 70.6447 112.678C70.2795 112.751 69.9139 112.751 69.5484 112.751C68.8176 112.751 68.1229 112.642 67.465 112.422C64.6146 111.546 62.5312 108.844 62.5312 105.705C62.5312 104.609 62.7871 103.587 63.2256 102.638C63.7741 101.506 64.6146 100.521 65.6744 99.8266C65.9303 99.6443 66.1862 99.4983 66.442 99.3887C67.0266 99.0967 67.648 98.8775 68.2691 98.7679C68.7079 98.6951 69.1099 98.6587 69.5484 98.6587C72.5454 98.6587 75.1036 100.521 76.0902 103.149C76.4193 103.989 76.5655 104.865 76.5655 105.741Z" fill="#EFF4F4"/>
<path d="M69.5501 106.581C69.1112 106.581 68.7461 106.216 68.7461 105.778V101.287C68.7461 100.849 69.1112 100.484 69.5501 100.484C69.9885 100.484 70.3541 100.849 70.3541 101.287V105.778C70.3541 106.216 69.9885 106.581 69.5501 106.581Z" fill="#C1D6CF"/>
<path d="M69.5496 106.581C69.2938 106.581 69.0015 106.435 68.8553 106.216C68.5995 105.851 68.7456 105.34 69.1112 105.084L71.4499 103.624C71.8155 103.368 72.3272 103.514 72.5831 103.879C72.839 104.245 72.6928 104.755 72.3272 105.011L69.9881 106.471C69.8419 106.544 69.6958 106.581 69.5496 106.581Z" fill="#C1D6CF"/>
<path opacity="0.3" d="M83.1087 86.6104L50.9473 118.702V101.47L65.8219 86.6104H83.1087Z" fill="#F6FBFD"/>
<path opacity="0.3" d="M95.1329 86.6104L50.9473 130.75V122.097L86.4709 86.6104H95.1329Z" fill="#F6FBFD"/>
<g opacity="0.7">
<path opacity="0.7" d="M99.6634 139.439H81.8281V157.256H99.6634V139.439Z" fill="#9FD2BA"/>
<path opacity="0.7" d="M90.7093 149.151C89.4668 149.151 88.4434 148.128 88.4434 146.887V145.537C88.4434 144.295 89.4668 143.273 90.7093 143.273C91.9521 143.273 92.9752 144.295 92.9752 145.537V146.887C93.012 148.128 91.9886 149.151 90.7093 149.151Z" fill="#F8FCFA"/>
<path opacity="0.7" d="M90.7079 147.982C88.5517 147.982 86.7242 149.224 85.8469 151.049C85.3352 152.108 86.1028 153.35 87.2724 153.35H94.0701C95.2397 153.35 96.0073 152.108 95.4955 151.049C94.7279 149.224 92.8641 147.982 90.7079 147.982Z" fill="#F8FCFA"/>
</g>
<path d="M92.9029 90.8818H87.6035V125.748H92.9029V90.8818Z" fill="#9FD2BA"/>
<path d="M97.5449 111.473V98.7314C98.1295 98.7314 98.6048 99.2062 98.6048 99.7902V110.451C98.6048 110.999 98.1295 111.473 97.5449 111.473Z" fill="#5BB98E"/>
<path opacity="0.3" d="M65.5292 78.0308L61.1436 90.8821L51.0566 120.418L50.07 123.339V120.418H48.1328V90.8821H50.07V80.5135C50.07 79.1259 51.2027 78.0308 52.5549 78.0308H65.5292Z" fill="#385F82"/>
<path d="M26.2046 167.917H104.635C105.548 167.917 106.316 167.187 106.316 166.238C106.316 165.325 105.585 164.558 104.635 164.558H26.2046C25.2909 164.558 24.5234 165.288 24.5234 166.238C24.56 167.187 25.2909 167.917 26.2046 167.917Z" fill="#E2E2E1"/>
</g>
<defs>
<clipPath id="clip0">
<rect width="183" height="168" fill="white"/>
</clipPath>
</defs>
</svg>
