<svg width="137" height="99" viewBox="0 0 137 99" fill="none" xmlns="http://www.w3.org/2000/svg">
<g clip-path="url(#clip0)">
<path d="M112.251 7.25244H55.3748C54.2791 7.25244 53.3906 8.14252 53.3906 9.24053V81.4745C53.3906 82.5728 54.2791 83.4628 55.3748 83.4628H112.251C113.346 83.4628 114.235 82.5728 114.235 81.4745V9.24053C114.235 8.14252 113.346 7.25244 112.251 7.25244Z" fill="#9B756D"/>
<path d="M114.235 79.4868V81.4747C114.235 82.0021 114.026 82.508 113.653 82.8805C113.281 83.2534 112.777 83.463 112.251 83.463H55.3748C54.8486 83.463 54.344 83.2534 53.9719 82.8805C53.5997 82.508 53.3906 82.0021 53.3906 81.4747V79.4868C53.3906 80.0142 53.5997 80.5197 53.9719 80.8926C54.344 81.2655 54.8486 81.4747 55.3748 81.4747H112.251C112.777 81.4747 113.281 81.2655 113.653 80.8926C114.026 80.5197 114.235 80.0142 114.235 79.4868Z" fill="#8A6762"/>
<path d="M108.283 11.8916H59.3438V78.1613H108.283V11.8916Z" fill="#DDE1E8"/>
<path d="M108.283 74.8481V78.1613H59.3438V74.8481H108.283Z" fill="#C7CDD8"/>
<path d="M121.51 69.5461C129.911 69.5461 136.721 62.722 136.721 54.3041C136.721 45.8861 129.911 39.062 121.51 39.062C113.109 39.062 106.299 45.8861 106.299 54.3041C106.299 62.722 113.109 69.5461 121.51 69.5461Z" fill="#8CDD79"/>
<path d="M121.51 69.5463C119.401 69.546 117.315 69.1064 115.385 68.2554C113.455 67.4043 111.722 66.1602 110.297 64.6023C108.873 63.0443 107.787 61.2066 107.109 59.2054C106.431 57.2047 106.175 55.0841 106.358 52.979C106.694 56.7733 108.436 60.304 111.24 62.8757C114.045 65.4477 117.708 66.874 121.51 66.874C125.312 66.874 128.975 65.4477 131.779 62.8757C134.584 60.304 136.326 56.7733 136.661 52.979C136.845 55.0841 136.589 57.2047 135.911 59.2054C135.233 61.2066 134.147 63.0443 132.722 64.6023C131.298 66.1602 129.565 67.4043 127.635 68.2554C125.705 69.1064 123.619 69.546 121.51 69.5463Z" fill="#7ECE67"/>
<path d="M114.235 67.6838V70.3347C111.747 68.9731 109.686 66.9446 108.283 64.4766V61.8257C109.686 64.2944 111.747 66.3229 114.235 67.6838Z" fill="#8A6762"/>
<path d="M108.283 61.8326V64.4835C106.756 61.7976 106.085 58.7085 106.359 55.6299C106.546 57.8122 107.203 59.9281 108.283 61.8326Z" fill="#C7CDD8"/>
<path d="M118.864 60.2684C118.474 60.2684 118.811 60.4934 113.098 54.7679C112.971 54.6412 112.9 54.4696 112.9 54.2907C112.9 54.1119 112.971 53.9403 113.098 53.8136C113.224 53.6872 113.395 53.6159 113.574 53.6159C113.752 53.6159 113.924 53.6872 114.05 53.8136L118.864 58.6513L128.97 48.5253C129.096 48.3986 129.268 48.3276 129.446 48.3276C129.625 48.3276 129.796 48.3986 129.922 48.5253C130.048 48.6517 130.12 48.8233 130.12 49.0025C130.12 49.1813 130.048 49.3529 129.922 49.4797C118.342 61.0834 119.261 60.2684 118.864 60.2684Z" fill="white"/>
<path d="M102.993 22.4946H64.6348V31.1097H102.993V22.4946Z" fill="#9DD5DF"/>
<path d="M84.4743 54.9669H64.6339C64.4587 54.9669 64.2905 54.8973 64.1663 54.7728C64.0425 54.6484 63.9727 54.4801 63.9727 54.3042C63.9727 54.1287 64.0425 53.9601 64.1663 53.8356C64.2905 53.7116 64.4587 53.6416 64.6339 53.6416H84.4743C84.6498 53.6416 84.8181 53.7116 84.9419 53.8356C85.0661 53.9601 85.1359 54.1287 85.1359 54.3042C85.1359 54.4801 85.0661 54.6484 84.9419 54.7728C84.8181 54.8973 84.6498 54.9669 84.4743 54.9669Z" fill="#ADB3C4"/>
<path d="M102.993 60.2685H68.6027C68.4275 60.2685 68.2592 60.1985 68.1351 60.0744C68.0112 59.95 67.9414 59.7814 67.9414 59.6058C67.9414 59.4299 68.0112 59.2613 68.1351 59.1372C68.2592 59.0128 68.4275 58.9429 68.6027 58.9429H102.993C103.168 58.9429 103.336 59.0128 103.461 59.1372C103.584 59.2613 103.654 59.4299 103.654 59.6058C103.654 59.7814 103.584 59.95 103.461 60.0744C103.336 60.1985 103.168 60.2685 102.993 60.2685Z" fill="#ADB3C4"/>
<path d="M102.992 65.5699H64.6339C64.4587 65.5699 64.2905 65.5003 64.1663 65.3759C64.0425 65.2515 63.9727 65.0832 63.9727 64.9073C63.9727 64.7314 64.0425 64.5631 64.1663 64.4387C64.2905 64.3143 64.4587 64.2446 64.6339 64.2446H102.992C103.168 64.2446 103.336 64.3143 103.46 64.4387C103.584 64.5631 103.654 64.7314 103.654 64.9073C103.654 65.0832 103.584 65.2515 103.46 65.3759C103.336 65.5003 103.168 65.5699 102.992 65.5699Z" fill="#ADB3C4"/>
<path d="M95.0558 70.872H64.6339C64.4587 70.872 64.2905 70.802 64.1663 70.6776C64.0425 70.5535 63.9727 70.3849 63.9727 70.209C63.9727 70.0335 64.0425 69.8648 64.1663 69.7404C64.2905 69.6163 64.4587 69.5464 64.6339 69.5464H95.0558C95.2314 69.5464 95.3997 69.6163 95.5235 69.7404C95.6477 69.8648 95.7171 70.0335 95.7171 70.209C95.7171 70.3849 95.6477 70.5535 95.5235 70.6776C95.3997 70.802 95.2314 70.872 95.0558 70.872Z" fill="#ADB3C4"/>
<path d="M89.0572 4.60178C88.888 3.32818 88.2629 2.15949 87.2983 1.31305C86.3337 0.466603 85.0951 0 83.813 0C82.5306 0 81.292 0.466603 80.3274 1.31305C79.3628 2.15949 78.7378 3.32818 78.5685 4.60178H70.5859V15.2049H97.0398V4.60178H89.0572ZM83.813 7.25257C83.4205 7.25257 83.0368 7.13599 82.7104 6.91753C82.3844 6.69907 82.1302 6.38857 81.98 6.0253C81.8298 5.66201 81.7903 5.26228 81.867 4.87664C81.9434 4.49097 82.1325 4.13675 82.4101 3.85869C82.6874 3.58066 83.0411 3.39131 83.4257 3.31459C83.8107 3.23788 84.2095 3.27725 84.5721 3.42774C84.9347 3.57819 85.2446 3.83302 85.4626 4.15995C85.6806 4.48691 85.7969 4.87129 85.7969 5.26449C85.7969 5.79176 85.5878 6.29746 85.216 6.67029C84.8438 7.04312 84.339 7.25257 83.813 7.25257Z" fill="#949AAF"/>
<path d="M97.0398 12.5542H70.5859V15.205H97.0398V12.5542Z" fill="#8288A1"/>
<path d="M74.7262 42.9762C74.219 42.9762 73.7626 42.8891 73.3569 42.7148C72.9511 42.5333 72.6323 42.2792 72.4005 41.9525C72.1687 41.6258 72.0527 41.2447 72.0527 40.8091H73.3786C73.4076 41.1358 73.5344 41.4044 73.759 41.6149C73.9908 41.8255 74.3132 41.9307 74.7262 41.9307C75.1537 41.9307 75.487 41.8291 75.726 41.6258C75.9651 41.4153 76.0847 41.1467 76.0847 40.82C76.0847 40.5659 76.0086 40.359 75.8565 40.1992C75.7116 40.0395 75.5268 39.9161 75.3022 39.829C75.0848 39.7419 74.7805 39.6475 74.3893 39.5458C73.8966 39.4152 73.4945 39.2845 73.183 39.1538C72.8787 39.0159 72.6179 38.8053 72.4005 38.5222C72.1831 38.239 72.0745 37.8615 72.0745 37.3896C72.0745 36.954 72.1831 36.5729 72.4005 36.2462C72.6179 35.9195 72.9222 35.669 73.3134 35.4948C73.7046 35.3205 74.1575 35.2334 74.6719 35.2334C75.4036 35.2334 76.0014 35.4185 76.4651 35.7888C76.936 36.1518 77.1968 36.6527 77.2475 37.2916H75.8782C75.8565 37.0157 75.726 36.7798 75.487 36.5838C75.2479 36.3877 74.9327 36.2897 74.5415 36.2897C74.1864 36.2897 73.8966 36.3805 73.672 36.562C73.4474 36.7435 73.3351 37.0048 73.3351 37.3461C73.3351 37.5784 73.404 37.7708 73.5416 37.9232C73.6865 38.0684 73.8677 38.1846 74.085 38.2717C74.3024 38.3588 74.5994 38.4532 74.9762 38.5548C75.4761 38.6928 75.8818 38.8307 76.1934 38.9687C76.5121 39.1066 76.7802 39.3208 76.9976 39.6112C77.2222 39.8943 77.3345 40.2755 77.3345 40.7546C77.3345 41.1394 77.2294 41.5024 77.0193 41.8436C76.8164 42.1848 76.5158 42.4607 76.1173 42.6713C75.726 42.8745 75.2624 42.9762 74.7262 42.9762ZM84.0781 37.5856C84.0781 37.9704 83.9875 38.3334 83.8064 38.6746C83.6253 39.0159 83.3355 39.2954 82.937 39.5132C82.5385 39.7237 82.0277 39.829 81.4046 39.829H80.0353V42.9H78.7964V35.3314H81.4046C81.9842 35.3314 82.4733 35.433 82.8718 35.6363C83.2775 35.8323 83.5782 36.101 83.7738 36.4422C83.9767 36.7834 84.0781 37.1646 84.0781 37.5856ZM81.4046 38.8162C81.8756 38.8162 82.227 38.7109 82.4588 38.5004C82.6906 38.2826 82.8066 37.9777 82.8066 37.5856C82.8066 36.758 82.3393 36.3442 81.4046 36.3442H80.0353V38.8162H81.4046ZM86.4987 36.3333V38.5548H89.1069V39.5676H86.4987V41.8872H89.433V42.9H85.2597V35.3205H89.433V36.3333H86.4987ZM93.426 35.3314C94.2303 35.3314 94.933 35.4875 95.5344 35.7997C96.143 36.1046 96.6103 36.5475 96.9363 37.1283C97.2696 37.7018 97.4363 38.3733 97.4363 39.1429C97.4363 39.9125 97.2696 40.5804 96.9363 41.1467C96.6103 41.7129 96.143 42.1485 95.5344 42.4535C94.933 42.7511 94.2303 42.9 93.426 42.9H90.9591V35.3314H93.426ZM93.426 41.8872C94.31 41.8872 94.9874 41.6476 95.4583 41.1684C95.9293 40.6893 96.1647 40.0141 96.1647 39.1429C96.1647 38.2644 95.9293 37.5784 95.4583 37.0847C94.9874 36.591 94.31 36.3442 93.426 36.3442H92.198V41.8872H93.426Z" fill="#575757"/>
<path d="M61.8737 52.5H0.998047V99H61.8737V52.5Z" fill="#DDE1E8"/>
<path d="M61.8737 96.5H0.998047V99.0001H61.8737V96.5Z" fill="#C7CDD8"/>
<path d="M61.8736 39.5H0.997959C0.446801 39.5 0 39.9478 0 40.4999V51.5001C0 52.0522 0.446801 52.5 0.997959 52.5H61.8736C62.4246 52.5 62.8715 52.0522 62.8715 51.5001V40.4999C62.8715 39.9478 62.4246 39.5 61.8736 39.5Z" fill="#7AA8D7"/>
<path d="M62.8715 49V51.5001C62.8715 51.7651 62.7664 52.0195 62.5794 52.2069C62.392 52.3947 62.1381 52.5 61.8736 52.5H0.997959C0.733286 52.5 0.479451 52.3947 0.292296 52.2069C0.105142 52.0195 0 51.7651 0 51.5001V49C0 49.2653 0.105142 49.5194 0.292296 49.7072C0.479451 49.8946 0.733286 49.9999 0.997959 49.9999H61.8736C62.1381 49.9999 62.392 49.8946 62.5794 49.7072C62.7664 49.5194 62.8715 49.2653 62.8715 49Z" fill="#5B8DC9"/>
<path d="M6.98633 44.4998V36.4999C6.98633 36.3673 7.03889 36.2402 7.13245 36.1465C7.22604 36.0528 7.35297 36 7.48529 36C7.61765 36 7.74454 36.0528 7.83813 36.1465C7.93169 36.2402 7.98429 36.3673 7.98429 36.4999V44.4998C7.98429 44.6325 7.93169 44.7599 7.83813 44.8536C7.74454 44.9473 7.61765 45.0001 7.48529 45.0001C7.35297 45.0001 7.22604 44.9473 7.13245 44.8536C7.03889 44.7599 6.98633 44.6325 6.98633 44.4998Z" fill="#949AAF"/>
<path d="M12.9727 44.4998V36.4999C12.9727 36.3673 13.0252 36.2402 13.1188 36.1465C13.2124 36.0528 13.3393 36 13.4717 36C13.604 36 13.7309 36.0528 13.8245 36.1465C13.9181 36.2402 13.9706 36.3673 13.9706 36.4999V44.4998C13.9706 44.6325 13.9181 44.7599 13.8245 44.8536C13.7309 44.9473 13.604 45.0001 13.4717 45.0001C13.3393 45.0001 13.2124 44.9473 13.1188 44.8536C13.0252 44.7599 12.9727 44.6325 12.9727 44.4998Z" fill="#949AAF"/>
<path d="M18.9609 44.4998V36.4999C18.9609 36.3673 19.0135 36.2402 19.1071 36.1465C19.2007 36.0528 19.3276 36 19.4599 36C19.5923 36 19.7192 36.0528 19.8127 36.1465C19.9063 36.2402 19.9589 36.3673 19.9589 36.4999V44.4998C19.9589 44.6325 19.9063 44.7599 19.8127 44.8536C19.7192 44.9473 19.5923 45.0001 19.4599 45.0001C19.3276 45.0001 19.2007 44.9473 19.1071 44.8536C19.0135 44.7599 18.9609 44.6325 18.9609 44.4998Z" fill="#949AAF"/>
<path d="M24.9492 44.4998V36.4999C24.9492 36.3673 25.0018 36.2402 25.0953 36.1465C25.1889 36.0528 25.3159 36 25.4482 36C25.5805 36 25.7074 36.0528 25.801 36.1465C25.8946 36.2402 25.9472 36.3673 25.9472 36.4999V44.4998C25.9472 44.6325 25.8946 44.7599 25.801 44.8536C25.7074 44.9473 25.5805 45.0001 25.4482 45.0001C25.3159 45.0001 25.1889 44.9473 25.0953 44.8536C25.0018 44.7599 24.9492 44.6325 24.9492 44.4998Z" fill="#949AAF"/>
<path d="M30.9375 44.4998V36.4999C30.9375 36.3673 30.9901 36.2402 31.0837 36.1465C31.1772 36.0528 31.3041 36 31.4365 36C31.5688 36 31.6957 36.0528 31.7893 36.1465C31.8829 36.2402 31.9355 36.3673 31.9355 36.4999V44.4998C31.9355 44.6325 31.8829 44.7599 31.7893 44.8536C31.6957 44.9473 31.5688 45.0001 31.4365 45.0001C31.3041 45.0001 31.1772 44.9473 31.0837 44.8536C30.9901 44.7599 30.9375 44.6325 30.9375 44.4998Z" fill="#949AAF"/>
<path d="M36.9238 44.4998V36.4999C36.9238 36.3673 36.9765 36.2402 37.07 36.1465C37.1636 36.0528 37.2904 36 37.4228 36C37.5551 36 37.6819 36.0528 37.7758 36.1465C37.8693 36.2402 37.9217 36.3673 37.9217 36.4999V44.4998C37.9217 44.6325 37.8693 44.7599 37.7758 44.8536C37.6819 44.9473 37.5551 45.0001 37.4228 45.0001C37.2904 45.0001 37.1636 44.9473 37.07 44.8536C36.9765 44.7599 36.9238 44.6325 36.9238 44.4998Z" fill="#949AAF"/>
<path d="M42.9121 44.4998V36.4999C42.9121 36.3673 42.9648 36.2402 43.0583 36.1465C43.1519 36.0528 43.2787 36 43.411 36C43.5434 36 43.6702 36.0528 43.7641 36.1465C43.8576 36.2402 43.91 36.3673 43.91 36.4999V44.4998C43.91 44.6325 43.8576 44.7599 43.7641 44.8536C43.6702 44.9473 43.5434 45.0001 43.411 45.0001C43.2787 45.0001 43.1519 44.9473 43.0583 44.8536C42.9648 44.7599 42.9121 44.6325 42.9121 44.4998Z" fill="#949AAF"/>
<path d="M48.9004 44.4998V36.4999C48.9004 36.3673 48.9528 36.2402 49.0466 36.1465C49.1401 36.0528 49.2669 36 49.3993 36C49.5317 36 49.6585 36.0528 49.752 36.1465C49.8459 36.2402 49.8983 36.3673 49.8983 36.4999V44.4998C49.8983 44.6325 49.8459 44.7599 49.752 44.8536C49.6585 44.9473 49.5317 45.0001 49.3993 45.0001C49.2669 45.0001 49.1401 44.9473 49.0466 44.8536C48.9528 44.7599 48.9004 44.6325 48.9004 44.4998Z" fill="#949AAF"/>
<path d="M54.8887 44.4998V36.4999C54.8887 36.3673 54.941 36.2402 55.0349 36.1465C55.1284 36.0528 55.2552 36 55.3876 36C55.52 36 55.6468 36.0528 55.7403 36.1465C55.8338 36.2402 55.8865 36.3673 55.8865 36.4999V44.4998C55.8865 44.6325 55.8338 44.7599 55.7403 44.8536C55.6468 44.9473 55.52 45.0001 55.3876 45.0001C55.2552 45.0001 55.1284 44.9473 55.0349 44.8536C54.941 44.7599 54.8887 44.6325 54.8887 44.4998Z" fill="#949AAF"/>
<path d="M61.8737 52.5V84.5001C61.8737 85.826 61.3478 87.0979 60.4122 88.0354C59.4765 88.9732 58.2073 89.4999 56.8838 89.4999C55.5605 89.4999 54.2913 88.9732 53.3557 88.0354C52.4197 87.0979 51.8941 85.826 51.8941 84.5001L0.998047 99V52.5H61.8737Z" fill="#EDF0F4"/>
<path d="M56.8838 89.4998L0.998047 98.9999L51.8941 84.5C51.8941 85.8259 52.4197 87.0978 53.3553 88.0353C54.2913 88.9731 55.5605 89.4998 56.8838 89.4998Z" fill="#949AAF"/>
<path d="M13.7225 76.9998C17.994 76.9998 21.4567 73.5301 21.4567 69.2497C21.4567 64.9696 17.994 61.5 13.7225 61.5C9.45099 61.5 5.98828 64.9696 5.98828 69.2497C5.98828 73.5301 9.45099 76.9998 13.7225 76.9998Z" fill="#8CDD79"/>
<path d="M12.4186 72.4934C12.2264 72.4934 12.3925 72.6158 9.57765 69.5023C9.51544 69.4333 9.48047 69.3399 9.48047 69.2426C9.48047 69.1456 9.51544 69.0522 9.57765 68.9832C9.63986 68.9146 9.72424 68.8756 9.81223 68.8756C9.9002 68.8756 9.98457 68.9146 10.0468 68.9832L12.4186 71.6139L17.3968 66.1076C17.459 66.0386 17.5434 66 17.6314 66C17.7194 66 17.8038 66.0386 17.866 66.1076C17.9282 66.1762 17.9631 66.2696 17.9631 66.367C17.9631 66.4643 17.9282 66.5577 17.866 66.6263C12.1612 72.9366 12.6141 72.4934 12.4186 72.4934Z" fill="white"/>
<path d="M32.1116 68.8503L34.459 72.6291H33.068L31.3617 69.8848L29.7641 72.6291H28.3839L30.7314 68.8503L28.373 65.0605H29.7641L31.4812 67.8266L33.0897 65.0605H34.4699L32.1116 68.8503ZM43.7744 65.0605V72.6291H42.5355V67.4455L40.2315 72.6291H39.3729L37.0581 67.4455V72.6291H35.8192V65.0605H37.1559L39.8076 70.9956L42.4485 65.0605H43.7744ZM46.6418 71.6272H49.1958V72.6291H45.4029V65.0605H46.6418V71.6272Z" fill="#575757"/>
</g>
<defs>
<clipPath id="clip0">
<rect width="137" height="99" fill="white"/>
</clipPath>
</defs>
</svg>
