<svg width="124" height="98" viewBox="0 0 124 98" fill="none" xmlns="http://www.w3.org/2000/svg">
<g filter="url(#filter0_i)">
<path d="M86.8381 93.7089C65.2464 87.6268 49.9922 66.9327 49.9922 43.0271V10.6361C62.985 10.6189 75.7258 7.02814 86.8381 0.251953C97.9502 7.02884 110.691 10.6196 123.684 10.6361V43.0271C123.684 67.0069 108.393 87.6341 86.8381 93.7089Z" fill="#7AA8D7"/>
<path d="M123.684 40.8018V43.0269C123.684 66.762 108.562 87.5822 86.8381 93.7087C65.1138 87.5822 49.9922 66.7915 49.9922 43.0269V40.8018C49.9922 64.5369 65.1138 85.3571 86.8381 91.4835C108.562 85.3571 123.684 64.5663 123.684 40.8018Z" fill="#5B8DC9"/>
<path d="M86.8393 87.5157C68.5341 81.5819 55.8887 63.5137 55.8887 43.0124V16.3104C66.7349 15.4613 77.281 12.3198 86.8393 7.09082C96.3959 12.3285 106.942 15.4801 117.79 16.3401V43.0422C117.79 63.5137 105.144 81.5598 86.8393 87.5157Z" fill="#DDE1E8"/>
<path d="M106.735 37.3379H66.9414V68.4902H106.735V37.3379Z" fill="#C7CDD8"/>
<path d="M100.839 32.1459V37.338H96.4174C96.4174 32.2275 96.9921 28.734 93.6098 25.3295C87.6184 19.2993 77.2575 23.5494 77.2575 32.1459V37.338H72.8359V32.1459C72.8359 28.4083 74.3111 24.8238 76.9367 22.1809C79.5626 19.538 83.1239 18.0532 86.8374 18.0532C90.5509 18.0532 94.1122 19.538 96.7378 22.1809C99.3637 24.8238 100.839 28.4083 100.839 32.1459Z" fill="#C7CDD8"/>
<path d="M117.79 40.8018V43.0269C117.79 63.5133 105.144 81.5965 86.8393 87.5302C68.5341 81.5965 55.8887 63.5279 55.8887 43.0269V40.8018C55.8887 61.2882 68.5341 79.3713 86.8393 85.3051C105.144 79.3342 117.79 61.2882 117.79 40.8018Z" fill="#C7CDD8"/>
<path d="M117.79 16.3401V18.5653C106.942 17.7052 96.3959 14.5537 86.8393 9.31599C77.2833 14.5553 66.7368 17.707 55.8887 18.5653V16.3401C66.7368 15.4818 77.2833 12.3301 86.8393 7.09082C96.3959 12.3285 106.942 15.4801 117.79 16.3401Z" fill="#C7CDD8"/>
<path d="M106.735 34.3711H66.9414V65.5234H106.735V34.3711Z" fill="#949AAF"/>
<path d="M106.735 62.5566H66.9414V65.5235H106.735V62.5566Z" fill="#8288A1"/>
<path d="M100.839 29.1791V34.3712H96.4174C96.4174 29.2607 96.9921 25.7672 93.6098 22.3627C87.6184 16.3325 77.2575 20.5826 77.2575 29.1791V34.3712H72.8359V29.1791C72.8359 25.4415 74.3111 21.857 76.9367 19.2141C79.5626 16.5712 83.1239 15.0864 86.8374 15.0864C90.5509 15.0864 94.1122 16.5712 96.7378 19.2141C99.3637 21.857 100.839 25.4415 100.839 29.1791Z" fill="#949AAF"/>
<path d="M93.9418 58.4625C92.5811 59.6145 90.9642 60.4188 89.2288 60.8075C87.4931 61.1966 85.6903 61.1582 83.9724 60.696C82.2547 60.2337 80.6733 59.3615 79.362 58.1529C78.0507 56.9443 77.0486 55.435 76.4403 53.7536C75.832 52.0721 75.636 50.2675 75.8682 48.4933C76.1005 46.7191 76.7548 45.0274 77.7753 43.5618C78.7958 42.0966 80.1522 40.9006 81.73 40.0751C83.3078 39.2499 85.06 38.8201 86.8378 38.8218C97.1546 38.8218 101.797 51.8463 93.9418 58.4625Z" fill="#FBCC88"/>
<path d="M93.9426 58.462C86.3227 64.952 74.5321 58.5659 75.9026 48.4487C76.2668 51.1116 77.5765 53.552 79.5892 55.3186C81.6022 57.0848 84.1827 58.058 86.8534 58.058C89.5241 58.058 92.1043 57.0848 94.1173 55.3186C96.1303 53.552 97.44 51.1116 97.8039 48.4487C98.0585 50.3107 97.8378 52.207 97.162 53.959C96.4863 55.711 95.3783 57.2606 93.9426 58.462Z" fill="#F6B756"/>
<path d="M93.9285 58.4697C91.9444 60.1522 89.4336 61.075 86.8392 61.075C84.2449 61.075 81.7341 60.1522 79.75 58.4697C80.5754 54.9317 83.2431 51.4307 86.8392 51.4307C90.4353 51.4307 93.1031 54.9317 93.9285 58.4697Z" fill="#7AA8D7"/>
<path d="M86.8389 51.4309C88.874 51.4309 90.5235 49.7706 90.5235 47.7223C90.5235 45.6739 88.874 44.0137 86.8389 44.0137C84.8038 44.0137 83.1543 45.6739 83.1543 47.7223C83.1543 49.7706 84.8038 51.4309 86.8389 51.4309Z" fill="#7AA8D7"/>
<path d="M77.2575 31.4043H72.8359V34.3712H77.2575V31.4043Z" fill="#8288A1"/>
<path d="M100.839 31.4043H96.418V34.3712H100.839V31.4043Z" fill="#8288A1"/>
<path d="M93.9285 58.4697C91.9444 60.1522 89.4336 61.0747 86.8392 61.0747C84.2449 61.0747 81.7341 60.1522 79.75 58.4697C79.9372 57.6621 80.2139 56.8783 80.5754 56.1333C82.4144 57.4187 84.5999 58.1078 86.8392 58.1078C89.0783 58.1078 91.264 57.4187 93.1031 56.1333C93.4643 56.8783 93.7413 57.6621 93.9285 58.4697Z" fill="#5B8DC9"/>
<path d="M50.5126 64.5537H17.9277" stroke="#47566A" stroke-width="2.04" stroke-linecap="round" stroke-linejoin="round"/>
<path d="M5.39453 59.5081V50.9307H61.5408V93.8191C61.5408 94.7558 61.1711 95.6542 60.5131 96.3168C59.8548 96.979 58.9623 97.3512 58.0316 97.3512C57.1009 97.3512 56.2084 96.979 55.5504 96.3168C54.8921 95.6542 54.5224 94.7558 54.5224 93.8191V64.5538H17.9272L14.418 59.5081H5.39453Z" fill="#9B756D"/>
<path d="M54.5224 64.554H17.9272L14.418 59.5084H5.39453V55.9766H14.418L17.9272 61.0223H54.5224V64.554Z" fill="#8A6762"/>
<path d="M61.54 90.2876V93.8194C61.54 94.7561 61.1702 95.6545 60.5119 96.3171C59.854 96.9793 58.9614 97.3515 58.0307 97.3515C57.1 97.3515 56.2075 96.9793 55.5492 96.3171C54.8913 95.6545 54.5215 94.7561 54.5215 93.8194V90.2876C54.5215 91.2244 54.8913 92.1227 55.5492 92.785C56.2075 93.4475 57.1 93.8194 58.0307 93.8194C58.9614 93.8194 59.854 93.4475 60.5119 92.785C61.1702 92.1227 61.54 91.2244 61.54 90.2876Z" fill="#8A6762"/>
<path d="M57.9257 97.3513H3.79474C2.88935 97.3513 2.02099 96.9894 1.38076 96.345C0.740535 95.7007 0.380859 94.8265 0.380859 93.9152V59.5083H14.4174L17.9265 64.554H54.5217V93.9252C54.523 94.8335 54.8823 95.7043 55.5202 96.3464C56.1584 96.9887 57.0233 97.35 57.9257 97.3513Z" fill="#D1A788"/>
<path d="M10.4082 59.5085V39.3257C10.4082 37.8535 10.9892 36.4419 12.0233 35.4009C13.0575 34.3602 14.46 33.7754 15.9226 33.7754H56.0271C54.5644 33.7754 53.162 34.3602 52.1277 35.4009C51.0937 36.4419 50.5127 37.8535 50.5127 39.3257V64.5542H17.9278L14.4186 59.5085H10.4082Z" fill="#DDE1E8"/>
<path d="M50.5127 62.5359V64.5541H17.9278L14.4186 59.5084H10.4082V57.4902H15.4614L18.9705 62.5359H50.5127Z" fill="#C7CDD8"/>
<path d="M61.5405 39.3257V43.8668H50.5117V39.3257C50.5117 37.8535 51.0927 36.4419 52.1267 35.4009C53.161 34.3602 54.5635 33.7754 56.0261 33.7754C57.4884 33.7754 58.8912 34.3602 59.9252 35.4009C60.9595 36.4419 61.5405 37.8535 61.5405 39.3257Z" fill="#949AAF"/>
<path d="M61.5405 41.8481H50.5117V43.8664H61.5405V41.8481Z" fill="#8288A1"/>
<path d="M27.4519 92.3055C33.8198 92.3055 38.9818 87.1098 38.9818 80.7002C38.9818 74.2909 33.8198 69.0952 27.4519 69.0952C21.0841 69.0952 15.9219 74.2909 15.9219 80.7002C15.9219 87.1098 21.0841 92.3055 27.4519 92.3055Z" fill="#8CDD79"/>
<path d="M27.452 92.3055C25.8323 92.3052 24.2308 91.9615 22.7519 91.2966C21.2729 90.6317 19.9498 89.6608 18.8686 88.4469C17.7874 87.233 16.9725 85.8035 16.4769 84.2512C15.9812 82.6992 15.8161 81.0595 15.9921 79.439C16.3048 82.278 17.6468 84.9012 19.7612 86.8069C21.8756 88.7122 24.614 89.7655 27.452 89.7655C30.29 89.7655 33.0284 88.7122 35.1427 86.8069C37.2571 84.9012 38.5993 82.278 38.9119 79.439C39.0879 81.0595 38.9227 82.6992 38.4269 84.2512C37.9315 85.8035 37.1166 87.233 36.0352 88.4469C34.9542 89.6608 33.631 90.6317 32.1519 91.2966C30.6732 91.9615 29.0717 92.3052 27.452 92.3055Z" fill="#7ECE67"/>
<path d="M25.4467 85.2416C25.1509 85.2416 25.4066 85.4132 21.0753 81.0535C20.9796 80.9572 20.9258 80.8264 20.9258 80.6903C20.9258 80.5539 20.9796 80.4234 21.0753 80.3271C21.171 80.2307 21.3009 80.1764 21.4362 80.1764C21.5716 80.1764 21.7015 80.2307 21.7972 80.3271L25.4467 84.0102L33.1066 76.3006C33.2023 76.2042 33.3323 76.1499 33.4675 76.1499C33.603 76.1499 33.7326 76.2042 33.8284 76.3006C33.9241 76.3969 33.9781 76.5274 33.9781 76.6638C33.9781 76.7999 33.9241 76.9307 33.8284 77.0271C25.0507 85.8622 25.7475 85.2416 25.4467 85.2416Z" fill="white"/>
<path d="M43.9955 42.353H16.9251C16.7922 42.353 16.6647 42.2997 16.5707 42.205C16.4767 42.1106 16.4238 41.9822 16.4238 41.8484C16.4238 41.7146 16.4767 41.5861 16.5707 41.4914C16.6647 41.3971 16.7922 41.3438 16.9251 41.3438H43.9955C44.1285 41.3438 44.2561 41.3971 44.3502 41.4914C44.4443 41.5861 44.4969 41.7146 44.4969 41.8484C44.4969 41.9822 44.4443 42.1106 44.3502 42.205C44.2561 42.2997 44.1285 42.353 43.9955 42.353Z" fill="#ADB3C4"/>
<path d="M43.9955 48.4079H16.9251C16.7922 48.4079 16.6647 48.3549 16.5707 48.2602C16.4767 48.1655 16.4238 48.0373 16.4238 47.9036C16.4238 47.7698 16.4767 47.6413 16.5707 47.5466C16.6647 47.4519 16.7922 47.3989 16.9251 47.3989H43.9955C44.1285 47.3989 44.2561 47.4519 44.3502 47.5466C44.4443 47.6413 44.4969 47.7698 44.4969 47.9036C44.4969 48.0373 44.4443 48.1655 44.3502 48.2602C44.2561 48.3549 44.1285 48.4079 43.9955 48.4079Z" fill="#ADB3C4"/>
<path d="M43.9955 54.4625H16.9251C16.7922 54.4625 16.6647 54.4096 16.5707 54.3149C16.4767 54.2202 16.4238 54.092 16.4238 53.9579C16.4238 53.8241 16.4767 53.696 16.5707 53.6013C16.6647 53.5066 16.7922 53.4536 16.9251 53.4536H43.9955C44.1285 53.4536 44.2561 53.5066 44.3502 53.6013C44.4443 53.696 44.4969 53.8241 44.4969 53.9579C44.4969 54.092 44.4443 54.2202 44.3502 54.3149C44.2561 54.4096 44.1285 54.4625 43.9955 54.4625Z" fill="#ADB3C4"/>
<path d="M57.9264 97.3516H3.79542C2.89 97.3516 2.02166 96.9896 1.38143 96.3453C0.741203 95.7009 0.381527 94.8267 0.381527 93.9155C0.381527 93.7641 -3.78432 93.8194 54.5224 93.8194C54.5086 94.2784 54.5859 94.7353 54.7507 95.1631C54.9155 95.5913 55.1639 95.9814 55.4814 96.3108C55.7989 96.6403 56.1792 96.9022 56.5989 97.081C57.019 97.2598 57.4704 97.3519 57.9264 97.3516Z" fill="#CBA07A"/>
</g>
<defs>
<filter id="filter0_i" x="0.316406" y="0.251953" width="123.368" height="101.1" filterUnits="userSpaceOnUse" color-interpolation-filters="sRGB">
<feFlood flood-opacity="0" result="BackgroundImageFix"/>
<feBlend mode="normal" in="SourceGraphic" in2="BackgroundImageFix" result="shape"/>
<feColorMatrix in="SourceAlpha" type="matrix" values="0 0 0 0 0 0 0 0 0 0 0 0 0 0 0 0 0 0 127 0" result="hardAlpha"/>
<feOffset dy="4"/>
<feGaussianBlur stdDeviation="2"/>
<feComposite in2="hardAlpha" operator="arithmetic" k2="-1" k3="1"/>
<feColorMatrix type="matrix" values="0 0 0 0 0 0 0 0 0 0 0 0 0 0 0 0 0 0 0.25 0"/>
<feBlend mode="normal" in2="shape" result="effect1_innerShadow"/>
</filter>
</defs>
</svg>
